<svg xmlns="http://www.w3.org/2000/svg" width="64" height="64" viewBox="0 0 64 64" xml:space="preserve">
  <g fill="currentColor">
    <path d="M63.934 31.645c-.015-.037-.256-.646-.74-1.648C60.597 24.627 51.02 8.004 32 8.004 9.432 8.004.158 31.408.066 31.645a1.001 1.001 0 0 0 0 .719C.158 32.6 9.432 56.004 32 56.004c19.01 0 28.587-16.605 31.189-21.983.486-1.007.729-1.62.744-1.657.089-.232.089-.488.001-.719zM32 54.004c-19.686 0-28.677-19.123-29.917-22.001C3.321 29.121 12.288 10.004 32 10.004c19.686 0 28.677 19.123 29.917 22.001C60.679 34.887 51.712 54.004 32 54.004z"/>
      <path d="M32 16.008c-8.837 0-16 7.163-16 16s7.163 16 16 16 16-7.163 16-16-7.163-16-16-16zm0 30c-7.732 0-14-6.268-14-14s6.268-14 14-14 14 6.268 14 14-6.268 14-14 14z"/>
      <path d="M32 24.008a8 8 0 1 0 0 16 8 8 0 0 0 0-16zm0 14a6 6 0 0 1 0-12 6 6 0 0 1 0 12z"/>
      <path d="M32 28.004a1 1 0 1 0 0 2 2 2 0 0 1 2 2 1 1 0 1 0 2 0 4 4 0 0 0-4-4z"/>
  </g>
</svg>