<svg xmlns="http://www.w3.org/2000/svg" viewBox="0 0 512 512" xml:space="preserve" width="64" height="64">
  <path d="M256 40.32c-77.12 0-139.632 63.056-139.632 140.848S178.88 322.016 256 322.016s139.632-63.056 139.632-140.848S333.12 40.32 256 40.32zm0 265.696c-68.176 0-123.632-56-123.632-124.848S187.824 56.32 256 56.32s123.632 56 123.632 124.848c0 68.832-55.456 124.848-123.632 124.848z" fill="currentColor"/>
    <ellipse cx="257.28" cy="139.472" rx="28.496" ry="28.736" fill="currentColor" />
    <path d="M288.848 188.048 257.36 212l-31.488-23.952C187.104 199.776 187.6 239.36 187.6 239.36H327.12s.48-39.584-38.272-51.312zM116.352 385.28h279.28v16h-279.28zM0 455.68h512v16H0z" fill="currentColor" />
</svg>