<svg height="64" width="64" xmlns="http://www.w3.org/2000/svg" viewBox="0 0 512 512" xml:space="preserve">
  <circle cx="256" cy="256" r="256" fill="#ededee"/>
  <g fill="#dddcdf">
    <path d="M512 256c0 141.384-114.616 256-256 256V0c141.384 0 256 114.616 256 256z"/>
    <circle cx="256" cy="256" r="144.607"/>
  </g>
  <path d="M400.61 256c0 79.866-64.745 144.61-144.61 144.61V111.39c79.866 0 144.61 64.744 144.61 144.61z" fill="#cccccf"/>
  <path d="M141.137 370.863c26.177 26.177 15.868 63.666 30.392 69.285 14.372 5.56 35.417-48.595 25.759-87.499 44.497 7.16 107.694-9.327 160.443-62.077 52.531-52.531 61.736-131.907 53.658-167.275l-22.12-.568-.568-22.12c-35.368-8.078-114.744 1.128-167.275 53.658-52.75 52.75-69.238 115.947-62.077 160.443-38.902-9.658-93.058 11.389-87.499 25.759 5.622 14.526 43.111 4.217 69.287 30.394z" fill="#e05323"/>
  <path d="M141.137 370.863c26.177 26.177 15.868 63.666 30.392 69.285 14.372 5.56 35.417-48.595 25.759-87.499 44.497 7.16 107.694-9.327 160.443-62.077 52.531-52.531 61.736-131.907 53.658-167.275l-22.12-.568-248.132 248.134z" fill="#a5401d"/>
  <path d="m411.391 123.297-22.119-.568-.568-22.12c-27.305-6.236-80.839-2.165-128.001 24.185 6.329 28.338 21.739 56.91 45.666 80.838 23.928 23.928 52.5 39.337 80.837 45.666 26.35-47.161 30.421-100.695 24.185-128.001z" fill="#e3744e"/>
  <path d="m411.391 123.297-22.119-.568-82.904 82.904c23.928 23.928 52.5 39.337 80.837 45.666 26.351-47.162 30.422-100.696 24.186-128.002z" fill="#e05323"/>
  <circle cx="322.783" cy="142.136" r="12.662" fill="#f7f7f8"/>
</svg>